<svg width="65" height="64" viewBox="0 0 65 64" fill="none" xmlns="http://www.w3.org/2000/svg">
<g clip-path="url(#clip0_3628_3320)">
<path d="M32.5082 63.5427C50.1336 63.5427 64.4218 49.4205 64.4218 31.9999C64.4218 14.5792 50.1336 0.457031 32.5082 0.457031C14.8829 0.457031 0.594727 14.5792 0.594727 31.9999C0.594727 49.4205 14.8829 63.5427 32.5082 63.5427Z" fill="#039BE5"/>
<path d="M15.1976 31.3163L45.9675 19.5903C47.3957 19.0803 48.6429 19.9346 48.1802 22.069L48.1829 22.0664L42.9437 46.4622C42.5554 48.1918 41.5156 48.6123 40.0609 47.7975L32.0825 41.9857L28.2343 45.65C27.8087 46.0705 27.4497 46.4254 26.6253 46.4254L27.1917 38.4003L41.9783 25.197C42.6219 24.6371 41.8347 24.3217 40.9864 24.879L22.7132 36.2502L14.8359 33.8214C13.1259 33.2851 13.0886 32.1312 15.1976 31.3163Z" fill="white"/>
</g>
<defs>
<clipPath id="clip0_3628_3320">
<rect x="0.594727" y="0.457031" width="63.827" height="63.0857" rx="10" fill="white"/>
</clipPath>
</defs>
</svg>
