<svg width="65" height="64" viewBox="0 0 65 64" fill="none" xmlns="http://www.w3.org/2000/svg">
<g clip-path="url(#clip0_3628_3332)">
<path d="M32.5082 63.176C50.1336 63.176 64.4218 49.0402 64.4218 31.6029C64.4218 14.1655 50.1336 0.0297852 32.5082 0.0297852C14.8829 0.0297852 0.594727 14.1655 0.594727 31.6029C0.594727 49.0402 14.8829 63.176 32.5082 63.176Z" fill="#4D76A1"/>
<path fill-rule="evenodd" clip-rule="evenodd" d="M31.3032 45.4505H33.808C33.808 45.4505 34.5647 45.3684 34.9509 44.9564C35.3065 44.5782 35.2951 43.8679 35.2951 43.8679C35.2951 43.8679 35.2462 40.5427 36.8061 40.0531C38.3438 39.5707 40.3184 43.2668 42.4113 44.6879C43.994 45.7635 45.1966 45.5276 45.1966 45.5276L50.7928 45.4505C50.7928 45.4505 53.7203 45.2721 52.3322 42.9949C52.2184 42.8086 51.5238 41.3104 48.1713 38.2318C44.6624 35.0096 45.1323 35.5308 49.3592 29.9572C51.9334 26.5628 52.9625 24.4905 52.6411 23.603C52.3345 22.7576 50.4412 22.981 50.4412 22.981L44.1402 23.0199C44.1402 23.0199 43.6731 22.9568 43.3267 23.1617C42.9882 23.3626 42.7703 23.8309 42.7703 23.8309C42.7703 23.8309 41.773 26.4576 40.443 28.6914C37.6372 33.405 36.5154 33.6538 36.0569 33.3611C34.9902 32.679 35.2564 30.6208 35.2564 29.1586C35.2564 24.5907 35.9567 22.6861 33.8928 22.1931C33.2079 22.0293 32.7038 21.9213 30.9522 21.9038C28.704 21.8807 26.801 21.9106 25.7236 22.4329C25.0068 22.7801 24.4538 23.554 24.7906 23.5985C25.207 23.6536 26.1502 23.85 26.6503 24.5237C27.296 25.3927 27.2732 27.3446 27.2732 27.3446C27.2732 27.3446 27.6441 32.7218 26.4068 33.3898C25.5574 33.848 24.3924 32.9126 21.891 28.6363C20.6093 26.4458 19.6416 24.0245 19.6416 24.0245C19.6416 24.0245 19.455 23.572 19.1222 23.33C18.7183 23.0368 18.1539 22.9433 18.1539 22.9433L12.1664 22.9822C12.1664 22.9822 11.2675 23.0069 10.9376 23.3936C10.644 23.7375 10.9143 24.4489 10.9143 24.4489C10.9143 24.4489 15.6019 35.2989 20.9096 40.7667C25.7765 45.7798 31.3032 45.4505 31.3032 45.4505Z" fill="white"/>
</g>
<defs>
<clipPath id="clip0_3628_3332">
<rect width="63.827" height="63.1462" fill="white" transform="translate(0.594727 0.0297852)"/>
</clipPath>
</defs>
</svg>
